# xmcd
#
# Track frame offsets:
#	150
#	13932
#	28536
#	42719
#	63419
#	76598
#	89643
#	104827
#	119514
#	129793
#	144922
#	162678
#	186105
#
# Disc length: 2630 seconds
# Revision: 0
# Processed by: cddbd v1.5.2PL0 Copyright (c) Steve Scherf et al.
# Submitted via: dBpowerAMP V12.0
#
DISCID=b50a440d
DTITLE=Ragged Union - Hard Row to Hoe
DYEAR=2015
DGENRE=Country
TTITLE0=Simple Life
TTITLE1=Where's Pappy
TTITLE2=Worry My Life Away
TTITLE3=Run Rabbit Run
TTITLE4=All Rested
TTITLE5=Midnight Train
TTITLE6=Rake Out the Nails
TTITLE7=Two Tracks Coming
TTITLE8=Don't Lie to Me
TTITLE9=High Line
TTITLE10=Small Ship
TTITLE11=Bound for Glory
TTITLE12=Ferris Wheel
EXTD=
EXTT0=
EXTT1=
EXTT2=
EXTT3=
EXTT4=
EXTT5=
EXTT6=
EXTT7=
EXTT8=
EXTT9=
EXTT10=
EXTT11=
EXTT12=
PLAYORDER=
